<?xml version="1.0" encoding="utf-8"?>
<!-- Generator: Adobe Illustrator 25.0.1, SVG Export Plug-In . SVG Version: 6.00 Build 0)  -->
<svg version="1.1"
	 id="svg2" inkscape:version="0.91 r13725" xmlns:cc="http://web.resource.org/cc/" xmlns:dc="http://purl.org/dc/elements/1.1/" xmlns:inkscape="http://www.inkscape.org/namespaces/inkscape" xmlns:ns1="http://sozi.baierouge.fr" xmlns:rdf="http://www.w3.org/1999/02/22-rdf-syntax-ns#" xmlns:sodipodi="http://sodipodi.sourceforge.net/DTD/sodipodi-0.dtd" xmlns:svg="http://www.w3.org/2000/svg"
	 xmlns="http://www.w3.org/2000/svg" xmlns:xlink="http://www.w3.org/1999/xlink" x="0px" y="0px" viewBox="0 0 720 720"
	 style="enable-background:new 0 0 720 720;" xml:space="preserve">
<style type="text/css">
	.st0{fill:url(#path2433_3_);}
	.st1{fill:#9356DC;}
	.st2{fill:#FF79DA;}
	.st3{fill:none;stroke:url(#SVGID_1_);stroke-width:2;stroke-miterlimit:10;}
</style>
<g id="layer1">
	<linearGradient id="path2433_3_" gradientUnits="userSpaceOnUse" x1="359.7573" y1="150.713" x2="362.1289" y2="870.7131">
		<stop  offset="1.134840e-02" style="stop-color:#9356DC"/>
		<stop  offset="0.7243" style="stop-color:#FF79DA"/>
	</linearGradient>
	<path id="path2433" class="st0" d="M180,45C80.6,45,0,125.6,0,225c0,47.8,18.7,91.3,49.1,123.5L359,675l315.3-329.3
		c31.3-38,41.8-70.2,45.7-120.7c0-99.4-80.6-180-180-180c-91.5,0-167.2,68.5-178.5,157h-2.9C347.2,113.5,271.6,45,180,45L180,45z"/>
</g>
<g id="layer1_1_">
	<path id="path2433_1_" class="st1" d="M-399.5,899.4c-99.4,0-180,80.6-180,180c0,47.8,18.7,91.3,49.1,123.5l309.9,326.5
		l315.3-329.3c31.3-38,41.8-70.2,45.7-120.7c0-99.4-80.6-180-180-180c-91.5,0-167.2,68.5-178.5,157h-2.9
		C-232.3,967.9-308,899.4-399.5,899.4L-399.5,899.4z"/>
</g>
<g id="layer1_2_">
	<path id="path2433_2_" class="st2" d="M413.5,1006.4c-99.4,0-180,80.6-180,180c0,47.8,18.7,91.3,49.1,123.5l309.9,326.5
		l315.3-329.3c31.3-38,41.8-70.2,45.7-120.7c0-99.4-80.6-180-180-180c-91.5,0-167.2,68.5-178.5,157H592
		C580.7,1074.9,505.1,1006.4,413.5,1006.4L413.5,1006.4z"/>
</g>
<linearGradient id="SVGID_1_" gradientUnits="userSpaceOnUse" x1="-100" y1="1909.3898" x2="447" y2="1909.3898">
	<stop  offset="1.134840e-02" style="stop-color:#9356DC"/>
	<stop  offset="0.7243" style="stop-color:#FF79DA"/>
</linearGradient>
<rect x="-99" y="1677.9" class="st3" width="545" height="463"/>
</svg>
